<svg xmlns="http://www.w3.org/2000/svg" viewBox="0 0 595.28 841.89"><defs><style>.cls-1{isolation:isolate;}.cls-2,.cls-3{fill:#1e1e35;}.cls-3{opacity:0.75;mix-blend-mode:color-dodge;}.cls-4{fill:#17aa50;stroke-width:3px;}.cls-4,.cls-5,.cls-6{stroke:#17aa50;stroke-miterlimit:10;}.cls-5{fill:#fff;}.cls-5,.cls-6{stroke-width:5px;}.cls-6{fill:none;}.cls-7{font-size:29.09px;fill:#938c33;font-family:HelveticaNeueLTPro-Blk, Helvetica Neue LT Pro;letter-spacing:0.1em;}.cls-8{font-size:18.03px;letter-spacing:0.1em;}</style></defs><g class="cls-1"><g id="Layer_1" data-name="Layer 1"><rect class="cls-2" width="595.28" height="841.89"/><rect class="cls-3" width="595.28" height="841.89"/><path class="cls-4" d="M150.22,34.63H445.05a68,68,0,0,1,68,68v.14a13.57,13.57,0,0,1-13.57,13.57H95.78A13.57,13.57,0,0,1,82.2,102.79v-.14a68,68,0,0,1,68-68Z"/><path class="cls-5" d="M133.33,116.36H447.63a0,0,0,0,1,0,0V777.1a28.73,28.73,0,0,1-28.73,28.73H162.06a28.73,28.73,0,0,1-28.73-28.73V116.36A0,0,0,0,1,133.33,116.36Z"/><rect class="cls-6" x="257" y="160.59" width="88.44" height="97.68" rx="20.47"/><rect class="cls-6" x="257" y="289.05" width="88.44" height="97.68" rx="20.47"/><rect class="cls-6" x="257" y="417.51" width="88.44" height="97.68" rx="20.47"/><rect class="cls-6" x="253.42" y="545.96" width="88.44" height="97.68" rx="20.47"/><rect class="cls-6" x="253.42" y="674.42" width="88.44" height="97.68" rx="20.47"/><text class="cls-7" transform="translate(249.51 735.78)"> <tspan class="cls-8" x="12.62" y="0">floor 0</tspan></text><text class="cls-7" transform="translate(249.51 602.61)"> <tspan class="cls-8" x="12.62" y="0">floor 1</tspan></text><text class="cls-7" transform="translate(253.09 474.16)"> <tspan class="cls-8" x="12.62" y="0">floor 2</tspan></text><text class="cls-7" transform="translate(253.09 345.7)"> <tspan class="cls-8" x="12.62" y="0">floor 3</tspan></text><text class="cls-7" transform="translate(256.66 212.52)"> <tspan class="cls-8" x="12.62" y="0">floor 4</tspan></text></g></g></svg>